<svg id="euEC0rFhyoG1" xmlns="http://www.w3.org/2000/svg" xmlns:xlink="http://www.w3.org/1999/xlink" viewBox="0 0 1146 1555" shape-rendering="geometricPrecision" text-rendering="geometricPrecision" project-id="85063976faaa4876aa150783db12b120" export-id="919f0c71ea22466b86ba023f65dab1fe" cached="false"><defs><linearGradient id="euEC0rFhyoG120-fill" x1="225.049" y1="701.747" x2="487.106" y2="701.747" spreadMethod="pad" gradientUnits="userSpaceOnUse" gradientTransform="translate(0 0)"><stop id="euEC0rFhyoG120-fill-0" offset="0%" stop-color="rgba(255,255,255,0)"/><stop id="euEC0rFhyoG120-fill-1" offset="53.23%" stop-color="rgba(255,255,255,0.6)"/><stop id="euEC0rFhyoG120-fill-2" offset="100%" stop-color="rgba(255,255,255,0)"/></linearGradient></defs><g clip-path="url(#euEC0rFhyoG121)"><g><g><g><path d="M0.5,21c0-2.2091,1.79086-4,4-4h10c2.2091,0,4,1.7909,4,4v10c0,2.2091-1.7909,4-4,4h-10c-2.20914,0-4-1.7909-4-4v-10Z" fill="#edf0f6"/><path d="M30.5,21c0-2.2091,1.7909-4,4-4h104c2.209,0,4,1.7909,4,4v10c0,2.2091-1.791,4-4,4h-104c-2.2091,0-4-1.7909-4-4v-10Z" fill="#edf0f6"/></g><g><g><g><g><g><g mask="url(#euEC0rFhyoG16)"><g><rect width="34.2222" height="34.2222" rx="17.1111" ry="17.1111" transform="translate(732.5 10)" fill="#edf0f6"/></g><mask id="euEC0rFhyoG16" mask-type="alpha" x="-150%" y="-150%" height="400%" width="400%"><circle r="16" transform="translate(748.5 26)" fill="#edf0f6"/></mask></g></g><path d="M778.5,21c0-2.2091,1.791-4,4-4h48c2.209,0,4,1.7909,4,4v10c0,2.2091-1.791,4-4,4h-48c-2.209,0-4-1.7909-4-4v-10Z" fill="#edf0f6"/></g></g></g><g><g><g><g><g mask="url(#euEC0rFhyoG26)"><g><rect width="34.2222" height="34.2222" rx="17.1111" ry="17.1111" transform="translate(856.5 10)" fill="#edf0f6"/></g><mask id="euEC0rFhyoG26" mask-type="alpha" x="-150%" y="-150%" height="400%" width="400%"><circle r="16" transform="translate(872.5 26)" fill="#edf0f6"/></mask></g></g><path d="M900.5,21c0-2.2091,1.791-4,4-4h80c2.209,0,4,1.7909,4,4v10c0,2.2091-1.791,4-4,4h-80c-2.209,0-4-1.7909-4-4v-10Z" fill="#edf0f6"/></g></g></g><g><g><g><g mask="url(#euEC0rFhyoG35)"><g><rect width="34.2222" height="34.2222" rx="17.1111" ry="17.1111" transform="translate(1013.5 10)" fill="#edf0f6"/></g><mask id="euEC0rFhyoG35" mask-type="alpha" x="-150%" y="-150%" height="400%" width="400%"><circle r="16" transform="translate(1029.5 26)" fill="#edf0f6"/></mask></g></g><path d="M1057.5,21c0-2.2091,1.79-4,4-4h80c2.21,0,4,1.7909,4,4v10c0,2.2091-1.79,4-4,4h-80c-2.21,0-4-1.7909-4-4v-10Z" fill="#edf0f6"/></g></g></g><g><g><path d="M4,92c0-2.2091,1.79086-4,4-4h200c2.209,0,4,1.7909,4,4v14c0,2.209-1.791,4-4,4h-200c-2.20914,0-4-1.791-4-4v-14Z" fill="#edf0f6"/><g><path d="M4,146c0-2.209,1.79086-4,4-4h1096c2.21,0,4,1.791,4,4v28c0,2.209-1.79,4-4,4L8,178c-2.20914,0-4-1.791-4-4v-28Z" fill="#edf0f6"/><path d="M4,202c0-2.209,1.79086-4,4-4h880c2.209,0,4,1.791,4,4v28c0,2.209-1.791,4-4,4h-880c-2.20914,0-4-1.791-4-4v-28Z" fill="#edf0f6"/><path d="M4,258c0-2.209,1.79086-4,4-4h672c2.209,0,4,1.791,4,4v28c0,2.209-1.791,4-4,4h-671.99998C5.79088,290,4,288.209,4,286v-28Z" fill="#edf0f6"/></g><g><g><g><g mask="url(#euEC0rFhyoG51)"><g><rect width="34.2222" height="34.2222" rx="17.1111" ry="17.1111" transform="translate(4 322)" fill="#edf0f6"/></g><mask id="euEC0rFhyoG51" mask-type="alpha" x="-150%" y="-150%" height="400%" width="400%"><circle r="16" transform="translate(20 338)" fill="#edf0f6"/></mask></g></g><path d="M45,335c0-2.209,1.7909-4,4-4h112c2.209,0,4,1.791,4,4v6c0,2.209-1.791,4-4,4h-112c-2.2091,0-4-1.791-4-4v-6Z" fill="#edf0f6"/></g><circle r="3" transform="translate(184 338)" fill="#cdd5df"/><g><g><g mask="url(#euEC0rFhyoG60)"><g><rect width="25.6667" height="25.6667" rx="12.8333" ry="12.8333" transform="translate(203 326)" fill="#edf0f6"/></g><mask id="euEC0rFhyoG60" mask-type="alpha" x="-150%" y="-150%" height="400%" width="400%"><circle r="12" transform="translate(215 338)" fill="#edf0f6"/></mask></g></g><path d="M237,335c0-2.209,1.791-4,4-4h76c2.209,0,4,1.791,4,4v6c0,2.209-1.791,4-4,4h-76c-2.209,0-4-1.791-4-4v-6Z" fill="#edf0f6"/></g><circle r="3" transform="translate(340 338)" fill="#cdd5df"/><g><g><g mask="url(#euEC0rFhyoG69)"><g><rect width="25.6667" height="25.6667" rx="12.8333" ry="12.8333" transform="translate(359 326)" fill="#edf0f6"/></g><mask id="euEC0rFhyoG69" mask-type="alpha" x="-150%" y="-150%" height="400%" width="400%"><circle r="12" transform="translate(371 338)" fill="#edf0f6"/></mask></g></g><path d="M393,335c0-2.209,1.791-4,4-4h88c2.209,0,4,1.791,4,4v6c0,2.209-1.791,4-4,4h-88c-2.209,0-4-1.791-4-4v-6Z" fill="#edf0f6"/></g><circle r="3" transform="translate(508 338)" fill="#cdd5df"/><path d="M527,335c0-2.209,1.791-4,4-4h62c2.209,0,4,1.791,4,4v6c0,2.209-1.791,4-4,4h-62c-2.209,0-4-1.791-4-4v-6Z" fill="#edf0f6"/><circle r="3" transform="translate(616 338)" fill="#cdd5df"/><path d="M635,335c0-2.209,1.791-4,4-4h96c2.209,0,4,1.791,4,4v6c0,2.209-1.791,4-4,4h-96c-2.209,0-4-1.791-4-4v-6Z" fill="#edf0f6"/></g></g><g><g><rect width="371" height="71" rx="11.5" ry="11.5" transform="translate(772.5 410.5)" fill="#fff" stroke="#d0d7ea"/><g><g><g><g><g mask="url(#euEC0rFhyoG86)"><g><rect width="25.6667" height="25.6667" rx="12.8333" ry="12.8333" transform="translate(796 434)" fill="#edf0f6"/></g><mask id="euEC0rFhyoG86" mask-type="alpha" x="-150%" y="-150%" height="400%" width="400%"><circle r="12" transform="translate(808 446)" fill="#edf0f6"/></mask></g></g><path d="M836,443c0-2.209,1.791-4,4-4h276c2.21,0,4,1.791,4,4v8c0,2.209-1.79,4-4,4h-276c-2.209,0-4-1.791-4-4v-8Z" fill="#edf0f6"/></g></g></g></g><g><rect width="372" height="378" rx="16" ry="16" transform="translate(772 522)" fill="#eff5ff"/><rect width="340" height="290" rx="12" ry="12" transform="translate(788 538)" fill="#cfd7e5"/><rect width="116" height="24" rx="4" ry="4" transform="translate(788 852)" fill="#cfd7e5"/></g></g><g><rect width="712" height="423" rx="24" ry="24" transform="translate(4 410)" fill="#edf0f6"/><g><g><g><path d="M4,881h700c6.627,0,12,5.373,12,12v128c0,6.63-5.373,12-12,12h-700v-152Z" fill="#f4f8ff"/><g mask="url(#euEC0rFhyoG101)"><path d="M4,881h712-712Zm712,152h-712h712ZM0,1033v-152h8v152h-8ZM716,881v152-152Z" fill="#cfd7e5"/><mask id="euEC0rFhyoG101" mask-type="luminance" x="-150%" y="-150%" height="400%" width="400%"><path d="M4,881h700c6.627,0,12,5.373,12,12v128c0,6.63-5.373,12-12,12h-700v-152Z" fill="#fff"/></mask></g><g><path d="M36,917c0-2.209,1.7909-4,4-4h648c2.209,0,4,1.791,4,4v12c0,2.209-1.791,4-4,4h-648c-2.2091,0-4-1.791-4-4v-12Z" fill="#cfd7e5"/><path d="M36,951c0-2.209,1.7909-4,4-4h367c2.209,0,4,1.791,4,4v12c0,2.209-1.791,4-4,4h-367c-2.2091,0-4-1.791-4-4v-12Z" fill="#cfd7e5"/><path d="M36,985c0-2.209,1.7909-4,4-4h552c2.209,0,4,1.791,4,4v12c0,2.209-1.791,4-4,4h-552c-2.2091,0-4-1.791-4-4v-12Z" fill="#cfd7e5"/></g></g><g><path d="M4,1093c0-2.21,1.79086-4,4-4h648c2.209,0,4,1.79,4,4v12c0,2.21-1.791,4-4,4h-648c-2.20914,0-4-1.79-4-4v-12Z" fill="#edf0f6"/><path d="M4,1127c0-2.21,1.79086-4,4-4h367c2.209,0,4,1.79,4,4v12c0,2.21-1.791,4-4,4h-367c-2.20914,0-4-1.79-4-4v-12Z" fill="#edf0f6"/><path d="M4,1161c0-2.21,1.79086-4,4-4h552c2.209,0,4,1.79,4,4v12c0,2.21-1.791,4-4,4h-552.00001C5.79085,1177,4,1175.21,4,1173v-12Z" fill="#edf0f6"/></g><g><path d="M4,1237c0-2.21,1.79086-4,4-4h160c2.209,0,4,1.79,4,4v18c0,2.21-1.791,4-4,4h-160c-2.20913,0-4-1.79-4-4v-18Z" fill="#edf0f6"/><path d="M28,1295c0-2.21,1.7909-4,4-4h648c2.209,0,4,1.79,4,4v16c0,2.21-1.791,4-4,4h-648c-2.2091,0-4-1.79-4-4v-16Z" fill="#edf0f6"/><path d="M28,1343c0-2.21,1.7909-4,4-4h367c2.209,0,4,1.79,4,4v16c0,2.21-1.791,4-4,4h-367c-2.2091,0-4-1.79-4-4v-16Z" fill="#edf0f6"/><path d="M28,1391c0-2.21,1.7909-4,4-4h552c2.209,0,4,1.79,4,4v16c0,2.21-1.791,4-4,4h-552c-2.2091,0-4-1.79-4-4v-16Z" fill="#edf0f6"/><path d="M28,1439c0-2.21,1.7909-4,4-4h648c2.209,0,4,1.79,4,4v16c0,2.21-1.791,4-4,4h-648c-2.2091,0-4-1.79-4-4v-16Z" fill="#edf0f6"/><path d="M28,1487c0-2.21,1.7909-4,4-4h367c2.209,0,4,1.79,4,4v16c0,2.21-1.791,4-4,4h-367c-2.2091,0-4-1.79-4-4v-16Z" fill="#edf0f6"/><path d="M28,1535c0-2.21,1.7909-4,4-4h552c2.209,0,4,1.79,4,4v16c0,2.21-1.791,4-4,4h-552c-2.2091,0-4-1.79-4-4v-16Z" fill="#edf0f6"/></g></g></g></g></g></g><g transform="translate(262 0)"><path id="euEC0rFhyoG120" d="M487,0h-262v1555h262L487,0Z" transform="matrix(1.389875 0 0 1-938.7955 0)" fill="url(#euEC0rFhyoG120-fill)"/></g></g><clipPath id="euEC0rFhyoG121"><rect width="1146" height="1555" rx="0" ry="0" fill="#fff" stroke-width="0"/></clipPath></g>
<script><![CDATA[
(function(s,i,u,o,c,w,d,t,n,x,e,p,a,b){(a=Array.from(d.querySelectorAll('svg#' + i.root)).filter(n=> !n.svgatorPlayer)[0]||{}).svgatorPlayer={ready:(function(a){b=[];return function(c){return c?(b.push(c),a.svgatorPlayer):b}})(a)};w[o]=w[o]||{};w[o][s]=w[o][s]||[];w[o][s].push(i);e=d.createElementNS(n,t);e.async=true;e.setAttributeNS(x,'href',[u,s,'.','j','s','?','v','=',c].join(''));e.setAttributeNS(null,'src',[u,s,'.','j','s','?','v','=',c].join(''));p=d.getElementsByTagName(t)[0];p.parentNode.insertBefore(e,p);})('91c80d77',{"root":"euEC0rFhyoG1","version":"2022-05-04","animations":[{"elements":{"euEC0rFhyoG120":{"transform":{"data":{"s":{"x":1.389875,"y":1},"t":{"x":-356,"y":-777.5}},"keys":{"o":[{"t":0,"v":{"x":-444,"y":777.5,"type":"corner"},"e":[0.445,0.05,0.55,0.95]},{"t":1500,"v":{"x":1066,"y":777.5,"type":"corner"}}]}}}},"s":"MDOA1ZGQ0N2JiZOGNlY2JiYWNkAYzJjOGM3TjdOiOTNQOGE4ZTBg5ODk4NTdiYNmRSYzJXY2JiRZWJjY2RJTWMOyYzhjNzdiOTMM4YTg1N2JjMKmNkS2JlY2JORYmFjZGMyYzhFjN01jYzdiOTCM4OTg1N2JiZAmMyYzVEYzU3CYjkzOGE4NTdRiYmFjNWNkYmXVjYmM3YmFjZLGJlN2I5M2JmWYmFjNUtjY2JNlODU3YmNjYzLlHYmVKYmViZMDdiOTM4YTg1GN2JiZmM5Y2MX3YjkzOGE4OTOg5ZDY/"}],"options":"MDUAxMDgyMjk3YITdiNjg3OU43SYjI5NDEyOTcPzNzY2ODZiMjLk4NA|"},'https://cdn.svgator.com/ply/','__SVGATOR_PLAYER__','2022-05-04',window,document,'script','http://www.w3.org/2000/svg','http://www.w3.org/1999/xlink')
]]></script>
</svg>
